<?xml version="1.0" encoding="utf-8"?>
<!-- Generator: Adobe Illustrator 24.3.2, SVG Export Plug-In . SVG Version: 6.00 Build 0)  -->
<svg version="1.1" id="Capa_1" xmlns="http://www.w3.org/2000/svg" xmlns:xlink="http://www.w3.org/1999/xlink" x="0px" y="0px"
	 viewBox="0 0 278 280" style="enable-background:new 0 0 278 280;" xml:space="preserve">
<style type="text/css">
	.st0{fill:#232623;}
</style>
<g>
	<path class="st0" d="M66.9,0h45.7v115.4H66.9c-20.1,0-34.5-3.5-46-11.9C9.5,95.2,0,81.6,0,57.7C0,15.2,28.4,0,66.9,0z M49.2,75.1
		c2.7,2.8,7.2,5,14.2,5h5.7v-44h-5.7c-14.7,0-19.2,7.7-19.2,21.6C44.2,68.1,46.3,72.4,49.2,75.1z"/>
	<path class="st0" d="M161.1,0h42.3l43.8,115.4h-45.8l-19.1-60.7l-19.1,60.7h-46L161.1,0z"/>
	<path class="st0" d="M116.9,235.5H74.6L30.7,120.1h45.8l19.1,60.7l19.1-60.7h46L116.9,235.5z"/>
	<path class="st0" d="M211.1,235.5h-45.7V120.1h45.7c20.1,0,34.5,3.5,46,11.9c11.4,8.4,20.9,21.9,20.9,45.8
		C278,220.3,249.6,235.5,211.1,235.5z M228.8,160.4c-2.7-2.8-7.2-5-14.2-5h-5.7v44h5.7c14.7,0,19.2-7.7,19.2-21.6
		C233.8,167.4,231.7,163.1,228.8,160.4z"/>
	<path class="st0" d="M95.8,280c-13.9,0-22.6-7.7-22.6-19.9s8.7-19.9,22.6-19.9s22.6,7.7,22.6,19.9C118.4,272.3,109.6,280,95.8,280z
		"/>
</g>
</svg>
